<?xml version="1.0" standalone="no"?>
<!DOCTYPE svg PUBLIC "-//W3C//DTD SVG 20010904//EN"
 "http://www.w3.org/TR/2001/REC-SVG-20010904/DTD/svg10.dtd">
<svg version="1.0" xmlns="http://www.w3.org/2000/svg"
 width="527.000000pt" height="500.000000pt" viewBox="0 0 527.000000 500.000000"
 preserveAspectRatio="xMidYMid meet">
<metadata>
Created by potrace 1.16, written by Peter Selinger 2001-2019
</metadata>
<g transform="translate(0.000000,500.000000) scale(0.100000,-0.100000)"
fill="#000000" stroke="none">
<path d="M2707 4423 c-40 -14 -55 -15 -93 -5 -82 22 -143 11 -197 -36 -12 -11
-35 -15 -77 -13 -78 3 -237 -40 -312 -84 -56 -33 -59 -34 -93 -20 -91 39 -173
7 -314 -121 -60 -55 -67 -59 -128 -65 -55 -6 -70 -12 -99 -40 -18 -18 -36 -40
-39 -50 -5 -14 -15 -16 -68 -12 -75 6 -108 -12 -171 -94 -23 -29 -69 -71 -104
-93 -72 -46 -92 -81 -92 -159 0 -47 -2 -51 -28 -57 -46 -11 -88 -42 -117 -86
-16 -24 -45 -58 -66 -76 -61 -52 -78 -164 -33 -213 17 -19 16 -21 -34 -72 -28
-29 -62 -74 -76 -102 -43 -87 -59 -231 -31 -272 12 -17 13 -32 6 -70 -11 -58
-1 -114 33 -182 28 -53 95 -125 140 -148 17 -9 54 -37 82 -64 29 -26 64 -51
78 -55 39 -9 92 2 127 27 l30 21 22 -20 c57 -53 170 -58 284 -12 l76 31 46
-24 c25 -13 67 -27 93 -31 42 -6 49 -11 53 -34 11 -51 48 -137 78 -180 68 -95
242 -192 348 -192 43 0 70 7 125 35 70 35 114 44 114 23 0 -6 3 -9 6 -5 4 3
24 -3 45 -13 51 -26 60 -25 93 9 24 25 32 28 53 20 13 -5 37 -9 52 -9 30 0 61
-27 61 -52 0 -9 23 -35 51 -59 28 -23 61 -59 74 -79 13 -21 47 -62 77 -91 29
-30 90 -100 135 -156 100 -124 156 -165 223 -165 26 0 63 7 81 16 47 22 109
74 109 91 0 15 -40 116 -114 288 -25 59 -46 110 -46 114 0 3 8 2 18 -2 9 -4
87 -25 172 -46 277 -71 407 -64 618 36 205 97 311 174 352 254 43 87 52 231
19 321 -11 30 -21 60 -22 66 -1 6 25 32 59 56 79 59 97 97 98 204 1 48 6 87
13 96 57 68 63 283 12 448 -24 79 -42 100 -86 100 -18 0 -35 6 -37 13 -2 6
-14 50 -26 97 -56 210 -133 315 -236 323 -34 3 -39 8 -64 63 -33 72 -109 152
-176 184 -60 28 -138 50 -181 50 -27 0 -33 4 -33 22 0 61 -85 165 -170 208
-52 26 -136 41 -191 34 -43 -6 -49 -4 -49 11 0 25 -79 99 -110 105 -25 4 -177
5 -235 1 -16 -1 -59 0 -95 3 -46 4 -79 0 -113 -11z m180 -35 c18 -18 30 -145
15 -166 -7 -10 -44 -10 -183 -2 -96 5 -197 10 -225 10 l-51 0 -6 38 c-3 20 -9
46 -12 57 -5 16 3 26 37 48 45 30 48 30 183 11 25 -3 55 1 80 10 49 19 140 16
162 -6z m245 12 c20 -6 51 -25 68 -42 l32 -31 -3 -123 c-2 -68 0 -126 3 -129
14 -14 31 43 36 123 l5 84 87 -4 c71 -3 95 -9 131 -30 78 -46 149 -135 149
-187 0 -28 -76 -108 -115 -123 -19 -6 -35 -18 -35 -25 0 -18 42 -16 66 2 10 8
21 15 24 15 3 0 5 -28 5 -62 0 -82 18 -90 27 -13 4 33 17 84 29 113 24 58 29
60 121 41 78 -17 158 -61 207 -114 40 -43 80 -114 81 -142 0 -22 -60 -82 -96
-95 -19 -6 -34 -18 -34 -25 0 -18 42 -16 66 2 29 22 31 19 26 -35 -4 -41 -2
-50 12 -50 11 0 16 9 16 28 0 35 28 122 45 140 15 17 80 2 117 -27 33 -27 80
-117 117 -229 39 -116 39 -143 0 -211 -56 -98 -159 -180 -227 -181 -40 0 -91
28 -111 61 -17 27 -19 44 -14 125 6 93 6 93 -24 122 -32 33 -35 33 -224 50
-62 6 -120 17 -140 27 -84 43 -131 121 -145 244 -4 42 -11 61 -20 61 -19 0
-18 -69 0 -140 13 -50 13 -56 -2 -65 -9 -5 -57 -32 -105 -58 -65 -36 -86 -44
-78 -29 18 33 88 90 120 97 17 4 31 13 31 21 0 30 -78 9 -122 -34 -16 -14 -28
-22 -28 -18 0 10 89 165 117 203 12 17 23 35 23 39 0 5 23 48 50 96 79 139 66
161 -55 92 -42 -24 -81 -44 -85 -44 -5 0 -37 50 -72 111 -82 144 -106 166
-198 175 l-70 7 0 62 c0 34 -3 76 -6 93 -5 24 -2 31 12 35 35 9 149 7 186 -3z
m-741 -87 c6 -16 13 -44 16 -63 4 -33 1 -37 -46 -64 -44 -26 -67 -54 -178
-218 -107 -159 -126 -191 -116 -206 7 -12 8 -24 2 -35 -5 -9 -13 -49 -17 -89
l-7 -73 -195 -8 c-150 -7 -198 -12 -210 -24 -13 -13 -12 -17 10 -35 14 -11 51
-33 82 -49 31 -16 59 -33 63 -39 11 -17 -45 -100 -67 -100 -49 0 -104 27 -160
79 -45 41 -62 51 -71 42 -16 -16 71 -103 132 -132 l47 -22 -8 -84 c-4 -47 -3
-94 2 -108 8 -21 5 -27 -20 -45 -102 -73 -200 -67 -293 19 -24 23 -47 41 -51
41 -17 0 -3 -37 25 -66 29 -30 30 -34 20 -70 -17 -59 -13 -144 8 -189 23 -49
46 -71 136 -125 94 -57 124 -87 137 -137 11 -44 38 -60 38 -23 0 30 -27 91
-53 118 -12 13 -53 42 -92 64 -91 53 -133 93 -146 142 -11 40 -3 152 11 161 4
3 27 -2 51 -11 57 -20 112 -13 190 27 34 17 65 27 69 22 5 -4 27 -41 50 -82
30 -53 39 -76 31 -84 -18 -18 -13 -32 17 -43 21 -8 43 -38 91 -123 34 -62 59
-116 54 -120 -4 -4 -35 -15 -68 -25 -125 -38 -243 -135 -266 -220 -6 -23 -13
-46 -14 -52 -5 -16 -87 -2 -120 20 -39 26 -80 24 -159 -8 -57 -23 -81 -27
-135 -24 -91 5 -130 32 -129 89 0 48 -17 70 -90 112 -31 17 -58 40 -63 54 -11
31 -35 24 -31 -8 2 -26 20 -43 97 -92 41 -26 51 -38 53 -64 3 -28 -2 -36 -30
-53 -71 -44 -112 -38 -172 22 -23 22 -64 55 -91 73 -94 60 -155 159 -155 252
0 76 5 83 60 83 35 0 64 9 113 35 70 37 105 43 137 23 10 -7 23 -9 27 -5 14
14 -13 42 -50 51 -32 8 -45 4 -121 -34 -73 -36 -93 -42 -128 -37 -22 3 -45 11
-50 19 -13 19 -3 134 17 193 37 107 122 192 208 207 94 18 168 72 137 102 -8
8 -16 4 -31 -16 -20 -27 -97 -58 -145 -58 -29 0 -64 44 -64 81 0 45 18 79 68
129 26 26 60 64 75 84 19 23 42 39 68 46 34 9 46 7 92 -14 102 -49 145 -115
132 -204 -19 -125 -101 -212 -234 -247 -53 -13 -67 -35 -22 -35 51 0 142 40
189 83 60 56 94 126 99 207 6 77 22 107 65 118 17 4 33 13 36 20 7 23 -28 24
-70 3 l-43 -21 -40 39 c-22 21 -64 51 -94 66 l-53 27 4 58 c5 68 18 86 95 136
28 18 70 57 93 86 58 73 90 92 146 85 57 -6 77 -24 121 -114 32 -65 35 -76 24
-100 -9 -19 -9 -29 -1 -37 15 -14 40 18 40 52 0 22 3 21 53 -22 68 -61 122
-86 181 -86 41 0 53 5 80 33 28 28 34 43 44 115 12 86 28 127 70 177 38 46 62
105 62 158 0 69 -20 56 -36 -23 -9 -44 -23 -75 -44 -99 -48 -57 -69 -105 -81
-183 -13 -88 -26 -118 -60 -137 -60 -33 -153 18 -265 148 -93 108 -102 123
-83 158 20 38 67 63 117 63 56 0 73 10 155 86 118 111 213 142 276 88 l30 -25
28 26 c58 53 228 113 326 114 54 1 58 -1 68 -26z m488 -159 c156 -6 176 -9
197 -28 14 -12 55 -75 93 -140 37 -66 75 -125 85 -130 12 -9 26 -5 57 12 22
13 43 22 45 19 2 -2 -39 -80 -92 -174 l-97 -170 -106 5 c-58 2 -146 7 -196 10
l-90 7 48 28 c26 16 47 35 47 45 0 15 -195 366 -267 481 l-34 54 68 -6 c37 -4
146 -9 242 -13z m-373 -20 c29 -14 57 -55 144 -209 l23 -41 -102 -152 c-56
-84 -105 -151 -109 -149 -27 14 -332 199 -332 201 0 2 50 76 110 167 142 211
168 229 266 183z m248 -391 c25 -43 46 -82 46 -88 0 -5 -35 -30 -78 -55 -107
-63 -103 -84 21 -95 l67 -7 0 -43 c0 -34 -7 -51 -34 -84 -49 -59 -72 -99 -101
-175 -29 -78 -31 -108 -9 -227 21 -112 14 -151 -36 -201 -21 -21 -43 -38 -49
-38 -7 0 -11 34 -11 103 0 67 -4 107 -12 115 -7 7 -46 12 -102 13 -50 0 -99 4
-110 8 -17 6 -66 131 -66 167 0 8 30 -3 82 -31 61 -32 86 -41 95 -33 7 6 13
15 13 21 0 6 -30 64 -66 130 -36 65 -64 120 -62 121 2 2 24 17 50 34 35 24 51
43 64 79 10 27 26 54 35 60 9 7 59 78 110 158 52 80 97 145 101 145 4 0 28
-35 52 -77z m-473 -119 c87 -52 159 -98 159 -101 0 -3 -5 -23 -12 -45 -8 -28
-24 -48 -54 -69 -23 -16 -46 -29 -51 -29 -4 0 -27 36 -51 80 -55 103 -63 110
-122 110 -41 0 -49 3 -54 23 -13 48 -3 127 16 127 6 0 82 -43 169 -96z m-6
-286 c52 -93 91 -168 89 -168 -3 0 -25 12 -50 26 -24 14 -50 24 -57 21 -10 -4
-236 -400 -285 -501 l-18 -37 -110 197 c-60 108 -113 211 -118 228 -7 28 0 46
68 169 42 75 76 144 76 152 0 8 -20 25 -45 37 -25 12 -45 25 -45 30 0 7 170
15 323 14 l79 -1 93 -167z m828 152 l67 0 0 -34 c0 -33 -4 -37 -75 -76 -51
-28 -75 -47 -75 -60 0 -10 27 -70 60 -133 58 -111 66 -138 54 -184 -6 -21 -12
-23 -80 -23 l-74 0 0 84 c0 168 -19 161 -157 -54 -105 -164 -108 -168 -111
-132 -1 20 -9 78 -17 127 -14 82 -14 96 1 145 17 61 74 170 99 190 28 23 45
67 45 116 l0 47 98 -6 c53 -4 127 -7 165 -7z m417 -170 c107 -214 113 -247 55
-299 -46 -40 -58 -42 -203 -39 l-123 3 -84 161 -83 161 171 96 c95 52 173 96
174 96 2 1 43 -80 93 -179z m125 81 c32 -6 88 -11 124 -11 36 0 83 -5 104 -11
58 -16 67 -38 63 -160 -3 -94 -7 -112 -30 -152 -38 -65 -37 -128 3 -212 17
-35 31 -75 31 -89 0 -16 6 -26 15 -26 25 0 18 65 -15 130 -36 72 -39 128 -9
176 11 19 25 34 30 34 4 0 27 -10 49 -21 58 -30 131 -23 197 19 27 18 52 32
54 32 2 0 4 -15 4 -34 0 -32 -4 -36 -52 -56 -53 -22 -143 -107 -143 -135 0
-31 21 -23 49 19 22 32 49 53 93 75 33 17 68 31 77 31 13 0 16 13 16 78 1 72
3 81 40 140 35 57 41 63 69 60 39 -4 59 -39 82 -143 23 -110 23 -236 0 -303
l-18 -54 -52 8 c-78 12 -116 8 -142 -17 -34 -32 -31 -71 6 -103 18 -14 37 -23
46 -19 12 4 9 12 -17 39 -32 33 -32 34 -13 55 16 18 27 20 72 17 29 -3 58 -10
65 -17 18 -18 14 -139 -6 -177 -38 -73 -119 -120 -259 -151 -84 -18 -167 -5
-206 34 -28 29 -27 67 8 137 26 54 26 69 0 61 -11 -4 -20 -2 -20 4 0 6 -7 11
-15 11 -9 0 -15 -9 -15 -23 0 -47 -30 -123 -62 -155 -51 -53 -111 -82 -208
-102 -96 -20 -137 -40 -185 -90 -70 -74 -152 -87 -196 -32 -19 24 -21 36 -16
95 5 54 3 67 -8 67 -15 0 -22 -20 -27 -75 l-3 -30 -18 33 c-10 17 -24 32 -32
32 -19 0 -19 -10 0 -46 18 -35 19 -130 2 -164 -17 -33 -76 -72 -170 -110 -89
-37 -127 -74 -127 -124 0 -47 -29 -78 -101 -111 -46 -20 -71 -26 -101 -22 -41
6 -78 31 -78 53 0 17 -39 44 -65 44 -11 0 -37 5 -57 10 -45 13 -61 51 -57 137
2 45 0 58 -12 58 -11 0 -14 -17 -14 -80 0 -44 3 -89 8 -101 5 -15 2 -28 -11
-43 l-18 -23 -48 26 c-65 35 -97 33 -184 -10 -66 -33 -80 -36 -128 -31 -80 8
-197 68 -264 136 -64 64 -98 130 -113 217 -9 52 -8 69 7 107 32 84 141 164
267 196 l74 19 54 -31 54 -30 224 -10 c123 -5 230 -6 238 -3 12 4 15 27 15
109 0 113 4 123 55 129 29 3 33 -3 102 -117 40 -66 73 -122 73 -125 0 -4 -37
-11 -83 -17 -52 -7 -117 -25 -171 -48 -48 -20 -136 -47 -196 -60 -132 -29
-210 -64 -249 -112 -47 -57 -46 -122 3 -144 46 -21 118 26 95 62 -8 12 -12 10
-27 -9 -25 -33 -66 -27 -70 9 -7 60 91 126 228 154 87 18 219 60 272 86 20 10
78 23 129 29 91 10 94 10 111 -12 10 -13 20 -31 24 -40 4 -14 17 -18 60 -18
l54 0 0 49 c0 49 0 49 38 56 20 3 87 7 148 9 122 4 141 10 180 62 15 20 53 53
83 74 149 101 220 213 193 305 -7 24 -4 40 17 80 18 35 27 70 29 115 4 63 2
69 -67 208 -39 79 -71 145 -71 148 0 2 12 -2 28 -10 15 -8 54 -19 87 -25z
m-710 -471 c9 -8 100 -10 313 -8 l299 3 -35 -55 c-163 -257 -225 -351 -235
-357 -7 -5 -88 -10 -182 -13 l-170 -5 -5 -60 -5 -59 -103 172 c-95 158 -102
174 -90 195 7 13 54 87 103 165 l90 142 3 -54 c2 -31 9 -59 17 -66z m-497 -27
l82 -6 0 -195 0 -195 -202 7 c-264 10 -298 25 -298 135 0 27 17 69 61 149 l61
112 106 0 c59 0 144 -3 190 -7z m1544 -496 c56 -28 144 -33 230 -12 84 20 87
18 113 -69 36 -120 5 -268 -73 -345 -84 -83 -318 -206 -465 -243 -66 -17 -99
-20 -173 -15 -113 8 -356 69 -519 131 -65 25 -123 46 -128 46 -5 0 -7 -7 -5
-16 2 -10 35 -29 83 -48 l80 -31 43 -100 c24 -55 63 -149 88 -208 l45 -108
-23 -20 c-39 -33 -100 -61 -133 -61 -62 0 -122 50 -252 212 -34 41 -77 91 -98
110 -20 19 -50 56 -67 83 -16 26 -34 47 -39 47 -5 0 -9 4 -9 9 0 5 21 11 48
15 53 7 143 54 166 88 9 12 16 37 16 54 0 48 26 72 151 133 126 62 152 88 163
165 l7 45 28 -31 c22 -24 37 -32 77 -35 60 -6 96 10 163 72 59 55 73 61 167
81 98 20 169 53 213 98 l34 35 16 -31 c9 -18 33 -40 53 -51z"/>
<path d="M970 3049 c0 -6 11 -20 24 -30 22 -18 23 -21 10 -56 -7 -21 -13 -70
-14 -110 0 -39 -4 -75 -10 -78 -19 -12 -10 -24 33 -44 23 -10 55 -31 71 -45
21 -19 33 -23 40 -16 10 10 -26 50 -93 102 -10 9 -12 30 -8 88 5 83 23 127 62
158 45 35 24 59 -23 26 -21 -15 -25 -15 -41 0 -20 18 -51 21 -51 5z"/>
<path d="M3242 2134 c3 -17 17 -20 126 -26 147 -8 381 -42 462 -67 60 -19 70
-18 70 5 0 28 -304 82 -563 100 -93 6 -99 5 -95 -12z"/>
<path d="M1342 1018 c-17 -17 -15 -64 4 -82 9 -9 33 -16 57 -17 82 -1 276 -15
281 -19 2 -3 2 -43 -1 -89 l-6 -83 -66 6 c-119 11 -230 9 -246 -4 -19 -16 -20
-64 -1 -79 7 -6 55 -13 107 -16 52 -3 118 -8 147 -11 l52 -5 0 -52 c0 -99 10
-93 -162 -84 -178 10 -198 5 -198 -47 0 -23 6 -38 18 -45 22 -11 404 -35 431
-26 12 3 26 15 31 25 12 23 44 541 36 575 -4 14 -15 29 -26 35 -20 11 -256 30
-375 30 -42 0 -76 -5 -83 -12z"/>
<path d="M1985 990 c-27 -30 -14 -66 65 -190 38 -61 70 -112 70 -114 0 -2 -38
-61 -86 -131 -74 -110 -85 -132 -82 -163 2 -28 9 -40 30 -50 46 -22 71 -2 150
117 40 61 75 111 78 111 3 0 33 -44 68 -98 34 -55 71 -107 82 -117 45 -40 116
-6 107 51 -3 17 -40 85 -83 150 -42 65 -77 124 -77 129 0 6 27 51 60 100 99
147 109 177 75 208 -28 25 -65 21 -93 -10 -14 -16 -49 -65 -78 -110 -29 -46
-56 -81 -60 -78 -4 2 -31 43 -60 90 -29 48 -62 96 -72 106 -25 25 -71 24 -94
-1z"/>
<path d="M685 986 c-11 -8 -18 -26 -18 -46 0 -49 23 -60 119 -60 l83 0 3 -255
c3 -224 5 -256 20 -271 25 -25 77 -22 100 5 16 21 18 45 18 272 l0 249 83 0
c96 0 127 14 127 60 0 56 -18 60 -280 60 -183 0 -240 -3 -255 -14z"/>
<path d="M2605 986 c-11 -8 -18 -26 -18 -46 0 -49 23 -60 119 -60 l83 0 3
-255 c3 -224 5 -256 20 -271 25 -25 77 -22 100 5 16 21 18 45 18 272 l0 249
83 0 c96 0 127 14 127 60 0 56 -18 60 -280 60 -183 0 -240 -3 -255 -14z"/>
<path d="M3266 978 c-21 -33 -71 -559 -56 -588 17 -32 40 -37 254 -56 220 -20
229 -19 234 39 4 48 -8 53 -153 66 -66 6 -137 14 -159 17 l-39 6 7 81 c4 45 9
83 11 85 2 2 49 -1 105 -7 130 -14 193 -14 208 1 17 17 15 63 -2 78 -8 6 -79
18 -157 26 -78 8 -143 15 -144 17 -6 6 11 142 18 141 4 0 77 -6 162 -14 174
-14 185 -12 185 46 0 46 -12 50 -206 69 -224 21 -250 20 -268 -7z"/>
<path d="M3958 989 c-31 -17 -38 -79 -38 -324 0 -267 6 -308 48 -323 29 -10
71 0 84 21 4 7 8 67 8 135 l0 122 43 0 c65 0 95 -26 170 -148 38 -61 75 -116
83 -123 37 -30 114 -1 114 44 0 31 -69 153 -114 201 l-41 44 52 27 c83 43 115
134 78 223 -39 93 -93 112 -314 112 -86 0 -164 -5 -173 -11z m328 -122 c19
-17 27 -33 27 -56 0 -63 -57 -89 -195 -90 l-58 -1 0 85 0 85 99 0 c90 0 103
-2 127 -23z"/>
</g>
</svg>
